<svg width="18" height="16" viewBox="0 0 18 16" fill="none" xmlns="http://www.w3.org/2000/svg">
<path fill-rule="evenodd" clip-rule="evenodd" d="M13.6982 3.92504V3.92504C13.3873 3.92504 13.1057 3.74587 12.9732 3.46587C12.734 2.9592 12.4298 2.3117 12.2498 1.9592C11.984 1.43504 11.5532 1.13004 10.9565 1.12587C10.9465 1.12504 7.05317 1.12504 7.04317 1.12587C6.4465 1.13004 6.0165 1.43504 5.74984 1.9592C5.57067 2.3117 5.2665 2.9592 5.02734 3.46587C4.89484 3.74587 4.61234 3.92504 4.30234 3.92504V3.92504C2.639 3.92504 1.2915 5.27254 1.2915 6.93504V11.8817C1.2915 13.5434 2.639 14.8917 4.30234 14.8917H13.6982C15.3607 14.8917 16.7082 13.5434 16.7082 11.8817V6.93504C16.7082 5.27254 15.3607 3.92504 13.6982 3.92504Z" stroke="#333333" stroke-width="1.5" stroke-linecap="round" stroke-linejoin="round"/>
<path fill-rule="evenodd" clip-rule="evenodd" d="M6.35116 9.11212C6.35033 10.5729 7.54283 11.7679 9.00116 11.7671C10.457 11.7654 11.6462 10.5754 11.6487 9.11795C11.6512 7.65462 10.4628 6.46212 9.00283 6.46045C7.53449 6.45878 6.33949 7.67128 6.35116 9.11212Z" stroke="#333333" stroke-width="1.5" stroke-linecap="round" stroke-linejoin="round"/>
<path d="M13.0856 7.16257C13.0051 7.15431 12.9256 7.1333 12.8365 7.09745C12.7374 7.05344 12.6517 6.99746 12.5687 6.91321C12.4198 6.75475 12.3335 6.54752 12.3335 6.33374C12.3335 6.22018 12.3567 6.10763 12.4021 6.00567C12.4475 5.90238 12.5013 5.81524 12.5986 5.72046C12.6727 5.65599 12.7485 5.60411 12.8522 5.55844C13.1596 5.43663 13.5252 5.50941 13.7538 5.73784C13.8223 5.80532 13.8799 5.88675 13.912 5.95543L13.9309 6.00412C13.9769 6.10763 14.0002 6.22018 14.0002 6.33374C14.0002 6.55185 13.915 6.75357 13.7569 6.92147C13.6203 7.059 13.4409 7.14358 13.2495 7.16258L13.1668 7.16667L13.0856 7.16257Z" fill="#333333"/>
</svg>
