<svg width="28" height="28" viewBox="0 0 28 28" fill="none" xmlns="http://www.w3.org/2000/svg">
<rect width="28" height="28" rx="6" fill="url(#paint0_linear_23_2110)"/>
<path fill-rule="evenodd" clip-rule="evenodd" d="M18.6982 9.92491V9.92491C18.3873 9.92491 18.1057 9.74575 17.9732 9.46575C17.734 8.95908 17.4298 8.31158 17.2498 7.95908C16.984 7.43491 16.5532 7.12991 15.9565 7.12575C15.9465 7.12491 12.0532 7.12491 12.0432 7.12575C11.4465 7.12991 11.0165 7.43491 10.7498 7.95908C10.5707 8.31158 10.2665 8.95908 10.0273 9.46575C9.89484 9.74575 9.61234 9.92491 9.30234 9.92491V9.92491C7.639 9.92491 6.2915 11.2724 6.2915 12.9349V17.8816C6.2915 19.5432 7.639 20.8916 9.30234 20.8916H18.6982C20.3607 20.8916 21.7082 19.5432 21.7082 17.8816V12.9349C21.7082 11.2724 20.3607 9.92491 18.6982 9.92491Z" stroke="#ECEDEE" stroke-width="1.5" stroke-linecap="round" stroke-linejoin="round"/>
<path fill-rule="evenodd" clip-rule="evenodd" d="M11.3512 15.1121C11.3503 16.5729 12.5428 17.7679 14.0012 17.7671C15.457 17.7654 16.6462 16.5754 16.6487 15.118C16.6512 13.6546 15.4628 12.4621 14.0028 12.4605C12.5345 12.4588 11.3395 13.6713 11.3512 15.1121Z" stroke="#ECEDEE" stroke-width="1.5" stroke-linecap="round" stroke-linejoin="round"/>
<path d="M18.0855 13.1626C18.0049 13.1543 17.9254 13.1333 17.8364 13.0975C17.7373 13.0534 17.6515 12.9975 17.5686 12.9132C17.4196 12.7547 17.3334 12.5475 17.3334 12.3337C17.3334 12.2202 17.3566 12.1076 17.4019 12.0057C17.4474 11.9024 17.5012 11.8152 17.5985 11.7205C17.6725 11.656 17.7484 11.6041 17.852 11.5584C18.1595 11.4366 18.5251 11.5094 18.7537 11.7378C18.8221 11.8053 18.8798 11.8868 18.9118 11.9554L18.9308 12.0041C18.9768 12.1076 19 12.2202 19 12.3337C19 12.5518 18.9149 12.7536 18.7568 12.9215C18.6202 13.059 18.4408 13.1436 18.2494 13.1626L18.1667 13.1667L18.0855 13.1626Z" fill="#ECEDEE"/>
<defs>
<linearGradient id="paint0_linear_23_2110" x1="28" y1="28" x2="-0.456083" y2="27.5286" gradientUnits="userSpaceOnUse">
<stop stop-color="#888BF4"/>
<stop offset="1" stop-color="#5151C6"/>
</linearGradient>
</defs>
</svg>
