<svg width="30" height="30" viewBox="0 0 30 30" fill="none" xmlns="http://www.w3.org/2000/svg">
<path d="M14.577 7.32416H11.4612C8.89866 7.32416 7.29199 9.13832 7.29199 11.7067V18.635C7.29199 21.2033 8.89116 23.0175 11.4612 23.0175H18.8145C21.3853 23.0175 22.9845 21.2033 22.9845 18.635V15.2783" stroke="white" stroke-width="1.5" stroke-linecap="round" stroke-linejoin="round"/>
<path fill-rule="evenodd" clip-rule="evenodd" d="M12.3565 14.1007L18.584 7.87324C19.3599 7.09824 20.6174 7.09824 21.3932 7.87324L22.4074 8.88741C23.1832 9.66324 23.1832 10.9216 22.4074 11.6966L16.1499 17.9541C15.8107 18.2932 15.3507 18.4841 14.8707 18.4841H11.749L11.8274 15.3341C11.839 14.8707 12.0282 14.4291 12.3565 14.1007Z" stroke="white" stroke-width="1.5" stroke-linecap="round" stroke-linejoin="round"/>
<path d="M17.6377 8.83539L21.4427 12.6404" stroke="white" stroke-width="1.5" stroke-linecap="round" stroke-linejoin="round"/>
</svg>
