<svg width="20" height="21" viewBox="0 0 20 21" fill="none" xmlns="http://www.w3.org/2000/svg">
<path fill-rule="evenodd" clip-rule="evenodd" d="M9.77475 4.41594C14.7548 4.26011 17.6914 8.90511 18.2231 9.83177C18.3698 10.0884 18.3698 10.4043 18.2231 10.6609C17.5114 11.9018 14.8314 15.9593 10.2256 16.0768C10.1573 16.0784 10.0889 16.0793 10.0206 16.0793C5.13475 16.0793 2.30142 11.5751 1.77725 10.6609C1.62975 10.4043 1.62975 10.0884 1.77725 9.83177C2.48892 8.59094 5.16808 4.53261 9.77475 4.41594ZM10.1831 14.4109C6.59475 14.4943 4.25392 11.4251 3.47725 10.2426C4.33225 8.90511 6.48558 6.16677 9.81725 6.08177C13.3914 5.99094 15.7456 9.06761 16.5223 10.2501C15.6681 11.5876 13.5139 14.3259 10.1831 14.4109ZM7.08333 10.2463C7.08333 8.63794 8.39167 7.32961 10 7.32961C11.6083 7.32961 12.9167 8.63794 12.9167 10.2463C12.9167 11.8546 11.6083 13.1629 10 13.1629C8.39167 13.1629 7.08333 11.8546 7.08333 10.2463ZM8.75 10.2463C8.75 10.9354 9.31083 11.4963 10 11.4963C10.6892 11.4963 11.25 10.9354 11.25 10.2463C11.25 9.55711 10.6892 8.99627 10 8.99627C9.31083 8.99627 8.75 9.55711 8.75 10.2463Z" fill="url(#paint0_linear_1485_411)"/>
<mask id="mask0_1485_411" style="mask-type:luminance" maskUnits="userSpaceOnUse" x="1" y="4" width="18" height="13">
<path fill-rule="evenodd" clip-rule="evenodd" d="M9.77475 4.41594C14.7548 4.26011 17.6914 8.90511 18.2231 9.83177C18.3698 10.0884 18.3698 10.4043 18.2231 10.6609C17.5114 11.9018 14.8314 15.9593 10.2256 16.0768C10.1573 16.0784 10.0889 16.0793 10.0206 16.0793C5.13475 16.0793 2.30142 11.5751 1.77725 10.6609C1.62975 10.4043 1.62975 10.0884 1.77725 9.83177C2.48892 8.59094 5.16808 4.53261 9.77475 4.41594ZM10.1831 14.4109C6.59475 14.4943 4.25392 11.4251 3.47725 10.2426C4.33225 8.90511 6.48558 6.16677 9.81725 6.08177C13.3914 5.99094 15.7456 9.06761 16.5223 10.2501C15.6681 11.5876 13.5139 14.3259 10.1831 14.4109ZM7.08333 10.2463C7.08333 8.63794 8.39167 7.32961 10 7.32961C11.6083 7.32961 12.9167 8.63794 12.9167 10.2463C12.9167 11.8546 11.6083 13.1629 10 13.1629C8.39167 13.1629 7.08333 11.8546 7.08333 10.2463ZM8.75 10.2463C8.75 10.9354 9.31083 11.4963 10 11.4963C10.6892 11.4963 11.25 10.9354 11.25 10.2463C11.25 9.55711 10.6892 8.99627 10 8.99627C9.31083 8.99627 8.75 9.55711 8.75 10.2463Z" fill="white"/>
</mask>
<g mask="url(#mask0_1485_411)">
</g>
<defs>
<linearGradient id="paint0_linear_1485_411" x1="18.3331" y1="16.0793" x2="1.39999" y2="15.6785" gradientUnits="userSpaceOnUse">
<stop stop-color="#888BF4"/>
<stop offset="1" stop-color="#5151C6"/>
</linearGradient>
</defs>
</svg>
