<svg width="21" height="20" viewBox="0 0 21 20" fill="none" xmlns="http://www.w3.org/2000/svg">
<path fill-rule="evenodd" clip-rule="evenodd" d="M14.3357 5.45704C13.3032 4.47232 11.9253 3.93587 10.4997 3.95792C7.8909 3.95792 5.67528 5.71792 4.8853 8.08785C4.46643 9.32977 4.46643 10.6746 4.8853 11.9165H4.88898C5.68263 14.2828 7.89457 16.0428 10.5033 16.0428C11.85 16.0428 13.0061 15.6983 13.9021 15.0899V15.0874C14.9566 14.3893 15.6768 13.2907 15.9009 12.0488H10.4997V8.19808H19.9316C20.0492 8.86681 20.1043 9.55023 20.1043 10.23C20.1043 13.2714 19.0174 15.8428 17.1261 17.5844L17.1281 17.586C15.471 19.1145 13.1966 20 10.4997 20C6.71879 20 3.26125 17.8689 1.56372 14.4922C0.145428 11.6666 0.145428 8.33771 1.56372 5.51215C3.26125 2.13178 6.71879 0.000673866 10.4997 0.000673866C12.9835 -0.0287207 15.3828 0.904557 17.1906 2.60209L14.3357 5.45704Z" fill="url(#paint0_linear_1_104)"/>
<defs>
<linearGradient id="paint0_linear_1_104" x1="20.1043" y1="20" x2="0.180457" y2="19.6764" gradientUnits="userSpaceOnUse">
<stop stop-color="#888BF4"/>
<stop offset="1" stop-color="#5151C6"/>
</linearGradient>
</defs>
</svg>
