<svg width="18" height="18" viewBox="0 0 18 18" fill="none" xmlns="http://www.w3.org/2000/svg">
<rect width="18" height="18" rx="9" fill="white"/>
<path d="M12.3831 5.70726C12.1876 5.48304 11.9556 5.30517 11.7001 5.18381C11.4447 5.06246 11.1709 5 10.8944 5C10.6178 5 10.344 5.06246 10.0886 5.18381C9.83315 5.30517 9.60105 5.48304 9.40558 5.70726L8.9999 6.17238L8.59422 5.70726C8.19937 5.25456 7.66384 5.00023 7.10544 5.00023C6.54705 5.00023 6.01152 5.25456 5.61667 5.70726C5.22182 6.15996 5 6.77395 5 7.41416C5 8.05438 5.22182 8.66837 5.61667 9.12107L6.02235 9.58619L8.9999 13L11.9774 9.58619L12.3831 9.12107C12.5787 8.89695 12.7338 8.63086 12.8397 8.33798C12.9455 8.0451 13 7.73119 13 7.41416C13 7.09714 12.9455 6.78322 12.8397 6.49035C12.7338 6.19747 12.5787 5.93137 12.3831 5.70726Z" fill="url(#paint0_linear_890_1317)"/>
<defs>
<linearGradient id="paint0_linear_890_1317" x1="13" y1="13" x2="4.86969" y2="12.8653" gradientUnits="userSpaceOnUse">
<stop stop-color="#888BF4"/>
<stop offset="1" stop-color="#5151C6"/>
</linearGradient>
</defs>
</svg>
