<svg width="20" height="21" viewBox="0 0 20 21" fill="none" xmlns="http://www.w3.org/2000/svg">
<path fill-rule="evenodd" clip-rule="evenodd" d="M9.67637 2.16666C5.25278 2.16666 1.66675 5.67349 1.66675 9.99938C1.66675 14.3253 5.25278 17.8321 9.67637 17.8321C11.5683 17.8321 13.3071 17.1906 14.6776 16.1179L17.281 18.6572L17.3502 18.7155C17.5919 18.8904 17.9346 18.8705 18.1533 18.6561C18.3939 18.4202 18.3934 18.0383 18.1522 17.803L15.5794 15.2936C16.8875 13.8995 17.686 12.0406 17.686 9.99938C17.686 5.67349 14.1 2.16666 9.67637 2.16666ZM9.67636 3.37311C13.4186 3.37311 16.4523 6.33979 16.4523 9.99938C16.4523 13.659 13.4186 16.6256 9.67636 16.6256C5.93412 16.6256 2.90044 13.659 2.90044 9.99938C2.90044 6.33979 5.93412 3.37311 9.67636 3.37311Z" fill="url(#paint0_linear_1522_1568)"/>
<defs>
<linearGradient id="paint0_linear_1522_1568" x1="18.3334" y1="18.8333" x2="1.39527" y2="18.5527" gradientUnits="userSpaceOnUse">
<stop stop-color="#888BF4"/>
<stop offset="1" stop-color="#5151C6"/>
</linearGradient>
</defs>
</svg>
