<svg width="24" height="25" viewBox="0 0 24 25" fill="none" xmlns="http://www.w3.org/2000/svg">
<path fill-rule="evenodd" clip-rule="evenodd" d="M20.8067 8.12355L20.1842 7.04346C19.6577 6.12954 18.4907 5.81426 17.5755 6.33866V6.33866C17.1399 6.59528 16.6201 6.66809 16.1307 6.54103C15.6413 6.41396 15.2226 6.09746 14.9668 5.66131C14.8023 5.38409 14.7139 5.06833 14.7105 4.74598V4.74598C14.7254 4.22916 14.5304 3.72834 14.17 3.35761C13.8096 2.98688 13.3145 2.7778 12.7975 2.77802H11.5435C11.037 2.77801 10.5513 2.97985 10.194 3.33888C9.83669 3.69791 9.63717 4.18453 9.63961 4.69106V4.69106C9.6246 5.73686 8.77248 6.57675 7.72657 6.57664C7.40421 6.57329 7.08846 6.48488 6.81123 6.32035V6.32035C5.89606 5.79595 4.72911 6.11123 4.20254 7.02516L3.53435 8.12355C3.00841 9.03633 3.3194 10.2025 4.23 10.7322V10.7322C4.8219 11.074 5.18653 11.7055 5.18653 12.389C5.18653 13.0725 4.8219 13.704 4.23 14.0457V14.0457C3.32056 14.5719 3.00923 15.7353 3.53435 16.6453V16.6453L4.16593 17.7345C4.41265 18.1797 4.8266 18.5082 5.31619 18.6474C5.80578 18.7865 6.33064 18.7248 6.77462 18.476V18.476C7.21108 18.2213 7.73119 18.1515 8.21934 18.2821C8.70749 18.4128 9.12324 18.733 9.37416 19.1716C9.5387 19.4488 9.62711 19.7646 9.63046 20.0869V20.0869C9.63046 21.1435 10.487 22 11.5435 22H12.7975C13.8505 22 14.7055 21.1491 14.7105 20.0961V20.0961C14.7081 19.588 14.9089 19.1 15.2682 18.7407C15.6275 18.3814 16.1155 18.1806 16.6236 18.1831C16.9452 18.1917 17.2596 18.2797 17.5389 18.4393V18.4393C18.4517 18.9653 19.6179 18.6543 20.1476 17.7437V17.7437L20.8067 16.6453C21.0618 16.2074 21.1318 15.6859 21.0012 15.1963C20.8706 14.7067 20.5502 14.2893 20.111 14.0366V14.0366C19.6718 13.7839 19.3514 13.3665 19.2208 12.8769C19.0902 12.3872 19.1603 11.8658 19.4154 11.4279C19.5812 11.1383 19.8214 10.8981 20.111 10.7322V10.7322C21.0161 10.2028 21.3264 9.04343 20.8067 8.13271V8.13271V8.12355Z" stroke="#212121" stroke-width="1.5" stroke-linecap="round" stroke-linejoin="round"/>
<circle cx="12.175" cy="12.389" r="2.63616" stroke="#212121" stroke-width="1.5" stroke-linecap="round" stroke-linejoin="round"/>
</svg>
